{
	"asset":{
		"generator":"Khronos glTF Blender I/O v3.6.27",
		"version":"2.0"
	},
	"extensionsUsed":[
		"KHR_texture_transform",
		"KHR_materials_specular",
		"KHR_materials_ior"
	],
	"extensionsRequired":[
		"KHR_texture_transform"
	],
	"scene":0,
	"scenes":[
		{
			"name":"Scene",
			"nodes":[
				9
			]
		}
	],
	"nodes":[
		{
			"mesh":0,
			"name":"C_739_canapea012",
			"rotation":[
				0,
				0.7071068286895752,
				0,
				0.7071068286895752
			],
			"translation":[
				-0.9493962526321411,
				0.20007632672786713,
				0.038057804107666016
			]
		},
		{
			"mesh":1,
			"name":"Cube",
			"rotation":[
				0,
				0.7071068286895752,
				0,
				0.7071068286895752
			],
			"translation":[
				1.0308001041412354,
				0.3676927089691162,
				-0.013353079557418823
			]
		},
		{
			"mesh":2,
			"name":"Cube.001",
			"translation":[
				0.004092583432793617,
				0.178442120552063,
				-0.013314430601894855
			]
		},
		{
			"mesh":3,
			"name":"Cube.004",
			"rotation":[
				0,
				0.7071068286895752,
				0,
				0.7071068286895752
			],
			"translation":[
				0.004135310649871826,
				0.29439577460289,
				0.04270908236503601
			]
		},
		{
			"mesh":4,
			"name":"Cube.006",
			"rotation":[
				0,
				0.7071068286895752,
				0,
				0.7071068286895752
			],
			"translation":[
				-1.0267369747161865,
				0.3676927089691162,
				-0.013352960348129272
			]
		},
		{
			"mesh":5,
			"name":"perna_lowres.000",
			"rotation":[
				0,
				0.7071068286895752,
				0,
				0.7071068286895752
			],
			"translation":[
				-0.4673958718776703,
				0.6320637464523315,
				-0.29390135407447815
			]
		},
		{
			"mesh":5,
			"name":"perna_lowres.004",
			"rotation":[
				0,
				0.7071068286895752,
				0,
				0.7071068286895752
			],
			"translation":[
				0.46199530363082886,
				0.6320637464523315,
				-0.2939014136791229
			]
		},
		{
			"mesh":6,
			"name":"perna_medie.cute_baked",
			"rotation":[
				0.22328238189220428,
				0,
				0,
				0.9747537970542908
			],
			"translation":[
				-0.5783496499061584,
				0.6255514621734619,
				-0.06342187523841858
			]
		},
		{
			"mesh":7,
			"name":"perna_medie.cute_baked.001",
			"rotation":[
				-0.6991273164749146,
				0.48760780692100525,
				-0.5098922252655029,
				0.1160583347082138
			],
			"translation":[
				0.5761082768440247,
				0.5906931161880493,
				-0.10557833313941956
			]
		},
		{
			"children":[
				0,
				1,
				2,
				3,
				4,
				5,
				6,
				7,
				8
			],
			"name":"Sofa"
		}
	],
	"materials":[
		{
			"doubleSided":true,
			"name":"stofa canapea.cc0textires",
			"normalTexture":{
				"extensions":{
					"KHR_texture_transform":{
						"offset":[
							0,
							-2
						],
						"scale":[
							3,
							3
						]
					}
				},
				"index":0,
				"scale":0.5
			},
			"pbrMetallicRoughness":{
				"baseColorTexture":{
					"extensions":{
						"KHR_texture_transform":{
							"offset":[
								0,
								-2
							],
							"scale":[
								3,
								3
							]
						}
					},
					"index":1
				},
				"metallicFactor":0,
				"metallicRoughnessTexture":{
					"extensions":{
						"KHR_texture_transform":{
							"offset":[
								0,
								-2
							],
							"scale":[
								3,
								3
							]
						}
					},
					"index":2
				}
			}
		},
		{
			"doubleSided":true,
			"name":"WOOD",
			"normalTexture":{
				"extensions":{
					"KHR_texture_transform":{
						"offset":[
							0,
							-2
						],
						"scale":[
							3,
							3
						]
					}
				},
				"index":3
			},
			"pbrMetallicRoughness":{
				"baseColorTexture":{
					"extensions":{
						"KHR_texture_transform":{
							"offset":[
								0,
								-2
							],
							"scale":[
								3,
								3
							]
						}
					},
					"index":4
				},
				"metallicFactor":0,
				"metallicRoughnessTexture":{
					"extensions":{
						"KHR_texture_transform":{
							"offset":[
								0,
								-2
							],
							"scale":[
								3,
								3
							]
						}
					},
					"index":5
				}
			}
		},
		{
			"doubleSided":true,
			"name":"stofa canapea.002",
			"normalTexture":{
				"extensions":{
					"KHR_texture_transform":{
						"offset":[
							0,
							-2
						],
						"scale":[
							3,
							3
						]
					}
				},
				"index":6,
				"scale":0.5
			},
			"pbrMetallicRoughness":{
				"baseColorTexture":{
					"extensions":{
						"KHR_texture_transform":{
							"offset":[
								0,
								-2
							],
							"scale":[
								3,
								3
							]
						}
					},
					"index":7
				},
				"metallicFactor":0,
				"metallicRoughnessTexture":{
					"extensions":{
						"KHR_texture_transform":{
							"offset":[
								0,
								-2
							],
							"scale":[
								3,
								3
							]
						}
					},
					"index":8
				}
			}
		},
		{
			"doubleSided":true,
			"extensions":{
				"KHR_materials_specular":{
					"specularColorFactor":[
						0.3557036563006025,
						0.3557036563006025,
						0.3557036563006025
					]
				},
				"KHR_materials_ior":{
					"ior":1.4500000476837158
				}
			},
			"name":"husa_perna.03",
			"normalTexture":{
				"index":9
			},
			"pbrMetallicRoughness":{
				"baseColorTexture":{
					"extensions":{
						"KHR_texture_transform":{
							"offset":[
								0,
								-1
							],
							"scale":[
								2,
								2
							]
						}
					},
					"index":10
				},
				"metallicFactor":0,
				"roughnessFactor":0.800000011920929
			}
		}
	],
	"meshes":[
		{
			"name":"C_739_canapea012",
			"primitives":[
				{
					"attributes":{
						"POSITION":0,
						"NORMAL":1,
						"TEXCOORD_0":2
					},
					"indices":3,
					"material":0
				}
			]
		},
		{
			"name":"Cube.006",
			"primitives":[
				{
					"attributes":{
						"POSITION":4,
						"NORMAL":5,
						"TEXCOORD_0":6
					},
					"indices":7,
					"material":0
				}
			]
		},
		{
			"name":"Cube",
			"primitives":[
				{
					"attributes":{
						"POSITION":8,
						"NORMAL":9,
						"TEXCOORD_0":10
					},
					"indices":11,
					"material":1
				}
			]
		},
		{
			"name":"Cube.001",
			"primitives":[
				{
					"attributes":{
						"POSITION":12,
						"NORMAL":13,
						"TEXCOORD_0":14
					},
					"indices":15,
					"material":0
				}
			]
		},
		{
			"name":"Cube.010",
			"primitives":[
				{
					"attributes":{
						"POSITION":16,
						"NORMAL":17,
						"TEXCOORD_0":18
					},
					"indices":19,
					"material":0
				}
			]
		},
		{
			"name":"Cube.005",
			"primitives":[
				{
					"attributes":{
						"POSITION":20,
						"NORMAL":21,
						"TEXCOORD_0":22
					},
					"indices":23,
					"material":2
				}
			]
		},
		{
			"name":"Cube.000",
			"primitives":[
				{
					"attributes":{
						"POSITION":24,
						"NORMAL":25,
						"TEXCOORD_0":26
					},
					"indices":27,
					"material":3
				}
			]
		},
		{
			"name":"Cube.000",
			"primitives":[
				{
					"attributes":{
						"POSITION":28,
						"NORMAL":29,
						"TEXCOORD_0":30
					},
					"indices":27,
					"material":3
				}
			]
		}
	],
	"textures":[
		{
			"sampler":0,
			"source":0
		},
		{
			"sampler":0,
			"source":1
		},
		{
			"sampler":0,
			"source":2
		},
		{
			"sampler":0,
			"source":3
		},
		{
			"sampler":0,
			"source":4
		},
		{
			"sampler":0,
			"source":5
		},
		{
			"sampler":0,
			"source":0
		},
		{
			"sampler":0,
			"source":1
		},
		{
			"sampler":0,
			"source":2
		},
		{
			"sampler":0,
			"source":6
		},
		{
			"sampler":0,
			"source":7
		}
	],
	"images":[
		{
			"mimeType":"image/jpeg",
			"name":"Fabric30_nrm",
			"uri":"textures/Fabric30_nrm.jpg"
		},
		{
			"mimeType":"image/jpeg",
			"name":"Fabric30_col",
			"uri":"textures/Fabric30_col.jpg"
		},
		{
			"mimeType":"image/png",
			"name":"Fabric30_rgh",
			"uri":"textures/Fabric30_rgh.png"
		},
		{
			"mimeType":"image/jpeg",
			"name":"arch24_wood_02000",
			"uri":"textures/arch24_wood_02000.jpg"
		},
		{
			"mimeType":"image/jpeg",
			"name":"arch24_wood_02",
			"uri":"textures/arch24_wood_02.jpg"
		},
		{
			"mimeType":"image/png",
			"name":"arch24_wood_02000",
			"uri":"textures/arch24_wood_02000-1.png"
		},
		{
			"mimeType":"image/jpeg",
			"name":"Normal_map000",
			"uri":"textures/Normal_map000.jpg"
		},
		{
			"mimeType":"image/jpeg",
			"name":"Chocofur_Fabric_Solid_04_diff",
			"uri":"textures/Chocofur_Fabric_Solid_04_diff.jpg"
		}
	],
	"accessors":[
		{
			"bufferView":0,
			"componentType":5126,
			"count":246,
			"max":[
				0.5269051790237427,
				0.4999939203262329,
				1.8954033851623535
			],
			"min":[
				0.37690696120262146,
				2.521406941013993e-07,
				0.015427213162183762
			],
			"type":"VEC3"
		},
		{
			"bufferView":1,
			"componentType":5126,
			"count":246,
			"type":"VEC3"
		},
		{
			"bufferView":2,
			"componentType":5126,
			"count":246,
			"type":"VEC2"
		},
		{
			"bufferView":3,
			"componentType":5123,
			"count":900,
			"type":"SCALAR"
		},
		{
			"bufferView":4,
			"componentType":5126,
			"count":9778,
			"max":[
				0.4828072190284729,
				0.18217550218105316,
				0.11545030027627945
			],
			"min":[
				-0.4789738655090332,
				-0.16764846444129944,
				-0.10100842267274857
			],
			"type":"VEC3"
		},
		{
			"bufferView":5,
			"componentType":5126,
			"count":9778,
			"type":"VEC3"
		},
		{
			"bufferView":6,
			"componentType":5126,
			"count":9778,
			"type":"VEC2"
		},
		{
			"bufferView":7,
			"componentType":5123,
			"count":50880,
			"type":"SCALAR"
		},
		{
			"bufferView":8,
			"componentType":5126,
			"count":26997,
			"max":[
				1.1299811601638794,
				0.021552041172981262,
				0.4655263125896454
			],
			"min":[
				-1.1299811601638794,
				-0.17833971977233887,
				-0.4655263125896454
			],
			"type":"VEC3"
		},
		{
			"bufferView":9,
			"componentType":5126,
			"count":26997,
			"type":"VEC3"
		},
		{
			"bufferView":10,
			"componentType":5126,
			"count":26997,
			"type":"VEC2"
		},
		{
			"bufferView":11,
			"componentType":5123,
			"count":126336,
			"type":"SCALAR"
		},
		{
			"bufferView":12,
			"componentType":5126,
			"count":1417,
			"max":[
				0.4161626994609833,
				0.13461677730083466,
				0.9310767650604248
			],
			"min":[
				-0.41616272926330566,
				-0.09947976469993591,
				-0.9310767650604248
			],
			"type":"VEC3"
		},
		{
			"bufferView":13,
			"componentType":5126,
			"count":1417,
			"type":"VEC3"
		},
		{
			"bufferView":14,
			"componentType":5126,
			"count":1417,
			"type":"VEC2"
		},
		{
			"bufferView":15,
			"componentType":5123,
			"count":6048,
			"type":"SCALAR"
		},
		{
			"bufferView":16,
			"componentType":5126,
			"count":9696,
			"max":[
				0.4828072190284729,
				0.18217550218105316,
				0.10390198975801468
			],
			"min":[
				-0.4789738655090332,
				-0.16764846444129944,
				-0.11255671828985214
			],
			"type":"VEC3"
		},
		{
			"bufferView":17,
			"componentType":5126,
			"count":9696,
			"type":"VEC3"
		},
		{
			"bufferView":18,
			"componentType":5126,
			"count":9696,
			"type":"VEC2"
		},
		{
			"bufferView":19,
			"componentType":5123,
			"count":50880,
			"type":"SCALAR"
		},
		{
			"bufferView":20,
			"componentType":5126,
			"count":13315,
			"max":[
				0.15785251557826996,
				0.21797692775726318,
				0.4748806059360504
			],
			"min":[
				-0.12384968250989914,
				-0.22370316088199615,
				-0.4604579210281372
			],
			"type":"VEC3"
		},
		{
			"bufferView":21,
			"componentType":5126,
			"count":13315,
			"type":"VEC3"
		},
		{
			"bufferView":22,
			"componentType":5126,
			"count":13315,
			"type":"VEC2"
		},
		{
			"bufferView":23,
			"componentType":5123,
			"count":77568,
			"type":"SCALAR"
		},
		{
			"bufferView":24,
			"componentType":5126,
			"count":2904,
			"max":[
				0.21552518010139465,
				0.1003531739115715,
				0.17473088204860687
			],
			"min":[
				-0.2157159000635147,
				-0.152735635638237,
				-0.2002297341823578
			],
			"type":"VEC3"
		},
		{
			"bufferView":25,
			"componentType":5126,
			"count":2904,
			"type":"VEC3"
		},
		{
			"bufferView":26,
			"componentType":5126,
			"count":2904,
			"type":"VEC2"
		},
		{
			"bufferView":27,
			"componentType":5123,
			"count":14592,
			"type":"SCALAR"
		},
		{
			"bufferView":28,
			"componentType":5126,
			"count":2904,
			"max":[
				0.21552518010139465,
				0.1003531739115715,
				0.17473088204860687
			],
			"min":[
				-0.2157159000635147,
				-0.152735635638237,
				-0.2002297341823578
			],
			"type":"VEC3"
		},
		{
			"bufferView":29,
			"componentType":5126,
			"count":2904,
			"type":"VEC3"
		},
		{
			"bufferView":30,
			"componentType":5126,
			"count":2904,
			"type":"VEC2"
		}
	],
	"bufferViews":[
		{
			"buffer":0,
			"byteLength":2952,
			"byteOffset":0,
			"target":34962
		},
		{
			"buffer":0,
			"byteLength":2952,
			"byteOffset":2952,
			"target":34962
		},
		{
			"buffer":0,
			"byteLength":1968,
			"byteOffset":5904,
			"target":34962
		},
		{
			"buffer":0,
			"byteLength":1800,
			"byteOffset":7872,
			"target":34963
		},
		{
			"buffer":0,
			"byteLength":117336,
			"byteOffset":9672,
			"target":34962
		},
		{
			"buffer":0,
			"byteLength":117336,
			"byteOffset":127008,
			"target":34962
		},
		{
			"buffer":0,
			"byteLength":78224,
			"byteOffset":244344,
			"target":34962
		},
		{
			"buffer":0,
			"byteLength":101760,
			"byteOffset":322568,
			"target":34963
		},
		{
			"buffer":0,
			"byteLength":323964,
			"byteOffset":424328,
			"target":34962
		},
		{
			"buffer":0,
			"byteLength":323964,
			"byteOffset":748292,
			"target":34962
		},
		{
			"buffer":0,
			"byteLength":215976,
			"byteOffset":1072256,
			"target":34962
		},
		{
			"buffer":0,
			"byteLength":252672,
			"byteOffset":1288232,
			"target":34963
		},
		{
			"buffer":0,
			"byteLength":17004,
			"byteOffset":1540904,
			"target":34962
		},
		{
			"buffer":0,
			"byteLength":17004,
			"byteOffset":1557908,
			"target":34962
		},
		{
			"buffer":0,
			"byteLength":11336,
			"byteOffset":1574912,
			"target":34962
		},
		{
			"buffer":0,
			"byteLength":12096,
			"byteOffset":1586248,
			"target":34963
		},
		{
			"buffer":0,
			"byteLength":116352,
			"byteOffset":1598344,
			"target":34962
		},
		{
			"buffer":0,
			"byteLength":116352,
			"byteOffset":1714696,
			"target":34962
		},
		{
			"buffer":0,
			"byteLength":77568,
			"byteOffset":1831048,
			"target":34962
		},
		{
			"buffer":0,
			"byteLength":101760,
			"byteOffset":1908616,
			"target":34963
		},
		{
			"buffer":0,
			"byteLength":159780,
			"byteOffset":2010376,
			"target":34962
		},
		{
			"buffer":0,
			"byteLength":159780,
			"byteOffset":2170156,
			"target":34962
		},
		{
			"buffer":0,
			"byteLength":106520,
			"byteOffset":2329936,
			"target":34962
		},
		{
			"buffer":0,
			"byteLength":155136,
			"byteOffset":2436456,
			"target":34963
		},
		{
			"buffer":0,
			"byteLength":34848,
			"byteOffset":2591592,
			"target":34962
		},
		{
			"buffer":0,
			"byteLength":34848,
			"byteOffset":2626440,
			"target":34962
		},
		{
			"buffer":0,
			"byteLength":23232,
			"byteOffset":2661288,
			"target":34962
		},
		{
			"buffer":0,
			"byteLength":29184,
			"byteOffset":2684520,
			"target":34963
		},
		{
			"buffer":0,
			"byteLength":34848,
			"byteOffset":2713704,
			"target":34962
		},
		{
			"buffer":0,
			"byteLength":34848,
			"byteOffset":2748552,
			"target":34962
		},
		{
			"buffer":0,
			"byteLength":23232,
			"byteOffset":2783400,
			"target":34962
		}
	],
	"samplers":[
		{
			"magFilter":9729,
			"minFilter":9987
		}
	],
	"buffers":[
		{
			"byteLength":2806632,
			"uri":"chair.bin"
		}
	]
}
